<svg xmlns="http://www.w3.org/2000/svg" viewBox="0 0 700 520" fill="none">
  <!-- Background rings -->
  <circle cx="620" cy="250" r="420" stroke="white" stroke-width="1" opacity="0.08"/>
  <circle cx="620" cy="250" r="290" stroke="white" stroke-width="1" opacity="0.07"/>
  <circle cx="620" cy="250" r="160" fill="white" opacity="0.04"/>

  <!-- Featured Category Card 1: Trendy -->
  <rect x="44" y="44" width="258" height="180" rx="18" fill="white" opacity="0.10"/>
  <rect x="44" y="44" width="258" height="180" rx="18" stroke="white" stroke-width="1.5" opacity="0.22"/>
  <!-- Card header bar -->
  <rect x="44" y="44" width="258" height="46" rx="18" fill="white" opacity="0.12"/>
  <rect x="44" y="72" width="258" height="18" fill="white" opacity="0.12"/>
  <!-- Product dots inside card 1 -->
  <circle cx="98"  cy="136" r="24" fill="white" opacity="0.11"/>
  <circle cx="160" cy="136" r="24" fill="white" opacity="0.11"/>
  <circle cx="222" cy="136" r="24" fill="white" opacity="0.11"/>
  <circle cx="98"  cy="196" r="16" fill="white" opacity="0.07"/>
  <circle cx="160" cy="196" r="16" fill="white" opacity="0.07"/>
  <circle cx="222" cy="196" r="16" fill="white" opacity="0.07"/>

  <!-- Featured Category Card 2: New Arrivals -->
  <rect x="322" y="44" width="258" height="180" rx="18" fill="white" opacity="0.10"/>
  <rect x="322" y="44" width="258" height="180" rx="18" stroke="white" stroke-width="1.5" opacity="0.22"/>
  <rect x="322" y="44" width="258" height="46" rx="18" fill="white" opacity="0.12"/>
  <rect x="322" y="72" width="258" height="18" fill="white" opacity="0.12"/>
  <!-- Product dots inside card 2 -->
  <circle cx="376" cy="136" r="24" fill="white" opacity="0.11"/>
  <circle cx="438" cy="136" r="24" fill="white" opacity="0.11"/>
  <circle cx="500" cy="136" r="24" fill="white" opacity="0.11"/>
  <circle cx="376" cy="196" r="16" fill="white" opacity="0.07"/>
  <circle cx="438" cy="196" r="16" fill="white" opacity="0.07"/>
  <circle cx="500" cy="196" r="16" fill="white" opacity="0.07"/>

  <!-- Standard category chips — row 1 -->
  <rect x="44"  y="256" width="116" height="94" rx="14" fill="white" opacity="0.07"/>
  <rect x="176" y="256" width="116" height="94" rx="14" fill="white" opacity="0.07"/>
  <rect x="308" y="256" width="116" height="94" rx="14" fill="white" opacity="0.07"/>
  <rect x="440" y="256" width="116" height="94" rx="14" fill="white" opacity="0.07"/>
  <rect x="572" y="256" width="116" height="94" rx="14" fill="white" opacity="0.07"/>

  <!-- Standard category chips — row 2 -->
  <rect x="44"  y="368" width="116" height="94" rx="14" fill="white" opacity="0.05"/>
  <rect x="176" y="368" width="116" height="94" rx="14" fill="white" opacity="0.05"/>
  <rect x="308" y="368" width="116" height="94" rx="14" fill="white" opacity="0.05"/>
  <rect x="440" y="368" width="116" height="94" rx="14" fill="white" opacity="0.05"/>
  <rect x="572" y="368" width="116" height="94" rx="14" fill="white" opacity="0.05"/>

  <!-- Standard category chips — row 3 (fades out) -->
  <rect x="44"  y="480" width="116" height="94" rx="14" fill="white" opacity="0.03"/>
  <rect x="176" y="480" width="116" height="94" rx="14" fill="white" opacity="0.03"/>
  <rect x="308" y="480" width="116" height="94" rx="14" fill="white" opacity="0.03"/>
  <rect x="440" y="480" width="116" height="94" rx="14" fill="white" opacity="0.03"/>

  <!-- Sparkle / star decorations -->
  <!-- Large star top-right -->
  <path d="M626 22 L630 36 L644 40 L630 44 L626 58 L622 44 L608 40 L622 36 Z" fill="white" opacity="0.28"/>
  <!-- Medium star -->
  <path d="M670 118 L673 128 L683 131 L673 134 L670 144 L667 134 L657 131 L667 128 Z" fill="white" opacity="0.20"/>
  <!-- Small dots -->
  <circle cx="654" cy="76"  r="4" fill="white" opacity="0.24"/>
  <circle cx="598" cy="28"  r="3" fill="white" opacity="0.18"/>
  <circle cx="692" cy="164" r="3" fill="white" opacity="0.15"/>
  <circle cx="30"  cy="226" r="3" fill="white" opacity="0.12"/>
</svg>
